<svg width="22" height="23" viewBox="0 0 22 23" fill="none" xmlns="http://www.w3.org/2000/svg">
<path d="M11.1601 2.88342C13.9796 2.88342 14.314 2.89398 15.4281 2.94502C18.2899 3.07526 19.6266 4.4331 19.7568 7.27375C19.8079 8.38695 19.8176 8.72135 19.8176 11.5409C19.8176 14.3613 19.807 14.6948 19.7568 15.808C19.6257 18.646 18.2925 20.0065 15.4281 20.1367C14.314 20.1878 13.9814 20.1983 11.1601 20.1983C8.34058 20.1983 8.00618 20.1878 6.89298 20.1367C4.02418 20.0056 2.6945 18.6416 2.56426 15.8071C2.51322 14.6939 2.50266 14.3604 2.50266 11.54C2.50266 8.72047 2.5141 8.38695 2.56426 7.27287C2.69538 4.4331 4.02858 3.07438 6.89298 2.94414C8.00706 2.89398 8.34058 2.88342 11.1601 2.88342ZM11.1601 0.97998C8.29218 0.97998 7.93314 0.9923 6.80674 1.04334C2.9717 1.21934 0.840338 3.34718 0.664338 7.18575C0.612418 8.31303 0.600098 8.67207 0.600098 11.54C0.600098 14.4079 0.612418 14.7678 0.663458 15.8942C0.839458 19.7293 2.9673 21.8606 6.80586 22.0366C7.93314 22.0877 8.29218 22.1 11.1601 22.1C14.028 22.1 14.3879 22.0877 15.5144 22.0366C19.3459 21.8606 21.4825 19.7328 21.6559 15.8942C21.7078 14.7678 21.7201 14.4079 21.7201 11.54C21.7201 8.67207 21.7078 8.31303 21.6568 7.18663C21.4843 3.3551 19.3538 1.22022 15.5152 1.04422C14.3879 0.9923 14.028 0.97998 11.1601 0.97998V0.97998ZM11.1601 6.11742C8.16546 6.11742 5.73754 8.54535 5.73754 11.54C5.73754 14.5346 8.16546 16.9634 11.1601 16.9634C14.1547 16.9634 16.5827 14.5355 16.5827 11.54C16.5827 8.54535 14.1547 6.11742 11.1601 6.11742ZM11.1601 15.06C9.21619 15.06 7.6401 13.4848 7.6401 11.54C7.6401 9.59607 9.21619 8.01999 11.1601 8.01999C13.104 8.01999 14.6801 9.59607 14.6801 11.54C14.6801 13.4848 13.104 15.06 11.1601 15.06ZM16.7974 4.63638C16.0969 4.63638 15.5293 5.20398 15.5293 5.90358C15.5293 6.60319 16.0969 7.17079 16.7974 7.17079C17.497 7.17079 18.0637 6.60319 18.0637 5.90358C18.0637 5.20398 17.497 4.63638 16.7974 4.63638Z" fill="#E7E7DB"/>
</svg>
